<svg height='100px' width='100px'  fill="#ccc" xmlns="http://www.w3.org/2000/svg" xmlns:xlink="http://www.w3.org/1999/xlink" version="1.1" x="0px" y="0px" viewBox="0 0 32 32" enable-background="new 0 0 32 32" xml:space="preserve"><path d="M16,2C8.269,2,2,8.268,2,16c0,7.732,6.269,14,14,14c7.732,0,14-6.268,14-14C30,8.268,23.732,2,16,2z M15.995,24.5  c-0.994,0-1.8-0.807-1.8-1.802s0.806-1.802,1.8-1.802c0.996,0,1.803,0.808,1.803,1.802C17.798,23.693,16.991,24.5,15.995,24.5z   M18.912,16.986c-0.813,0.813-1.234,1.269-1.234,1.978v0.545c0,0.166-0.135,0.3-0.301,0.3h-2.762c-0.166,0-0.3-0.134-0.3-0.3v-0.545  c0-2.135,1.282-3.418,2.218-4.354c0.813-0.811,1.234-1.267,1.234-1.976c0-0.977-0.795-1.772-1.772-1.772  c-0.873,0-1.604,0.638-1.745,1.473c-0.027,0.164-0.16,0.299-0.326,0.299h-2.761c-0.167,0-0.302-0.136-0.292-0.301  C11.027,9.642,13.267,7.5,15.995,7.5c2.832,0,5.135,2.303,5.135,5.134C21.13,14.769,19.85,16.051,18.912,16.986z"></path></svg>